<svg width="30" height="30" viewBox="0 0 30 30" fill="none" xmlns="http://www.w3.org/2000/svg">
<circle cx="15" cy="15" r="15" fill="#EEEEEE"/>
<g clip-path="url(#clip0_9191_655)">
<path d="M23 8.08994C23.0012 7.79779 22.8885 7.5235 22.6825 7.31757C22.4766 7.11163 22.2018 6.99907 21.9102 7.00013C21.6189 7.00135 21.3446 7.11582 21.138 7.32244C21.0505 7.40994 20.8913 7.59894 20.8042 7.70385C20.7128 7.814 20.7279 7.97744 20.8381 8.06885C20.9482 8.16029 21.1117 8.14516 21.2031 8.035C21.3395 7.87075 21.4522 7.74141 21.5045 7.68904C21.6138 7.57975 21.7587 7.51919 21.9123 7.51854C21.9132 7.51854 21.914 7.51854 21.9148 7.51854C22.0667 7.51854 22.2092 7.57729 22.316 7.68413C22.4234 7.79154 22.4822 7.93488 22.4816 8.08775C22.4809 8.24141 22.4203 8.38622 22.3111 8.49557C22.2132 8.59341 21.8769 8.86019 21.3951 9.19679C21.11 8.70947 20.5814 8.38119 19.9773 8.38119H16.1815C15.6691 8.38119 15.1874 8.58072 14.8251 8.943L7.23791 16.5303C7.0845 16.6837 7 16.8877 7 17.1046C7 17.3215 7.0845 17.5255 7.23791 17.6789L12.3212 22.7623C12.4796 22.9206 12.6876 22.9998 12.8956 22.9998C13.1036 22.9998 13.3116 22.9206 13.4699 22.7623L21.0571 15.175C21.4194 14.8127 21.6189 14.331 21.6189 13.8186V10.0229C21.6189 9.91088 21.6076 9.8015 21.5861 9.69572C22.1346 9.31832 22.5372 9.0026 22.6776 8.86216C22.8843 8.65554 22.9988 8.38129 23 8.08994ZM21.1005 13.8186C21.1005 14.1925 20.9549 14.5441 20.6906 14.8084L13.1033 22.3957C12.9888 22.5102 12.8024 22.5102 12.6878 22.3957L7.6045 17.3123C7.54903 17.2569 7.51844 17.1831 7.51844 17.1046C7.51844 17.0261 7.549 16.9523 7.6045 16.8969L15.1917 9.30966C15.4561 9.04529 15.8076 8.89969 16.1815 8.89969H19.9772C20.4035 8.89969 20.775 9.13835 20.9653 9.48904C20.6591 9.69179 20.3162 9.90738 19.9525 10.1194C19.9412 10.1069 19.9296 10.0946 19.9176 10.0826C19.4931 9.6581 18.8024 9.6581 18.3779 10.0826C17.9534 10.5071 17.9534 11.1978 18.3779 11.6223C18.5901 11.8345 18.8689 11.9406 19.1477 11.9406C19.4265 11.9406 19.7053 11.8345 19.9176 11.6223C20.2009 11.3389 20.2948 10.9371 20.1999 10.5749C20.5163 10.3907 20.8201 10.2025 21.1004 10.0204C21.1004 10.0213 21.1005 10.0221 21.1005 10.0229V13.8186H21.1005ZM18.9162 10.9689C18.9618 11.0594 19.0531 11.1117 19.148 11.1117C19.1872 11.1117 19.2269 11.1028 19.2643 11.084C19.4163 11.0075 19.5677 10.928 19.7176 10.8466C19.7191 10.9946 19.6637 11.143 19.5511 11.2557C19.3287 11.478 18.9669 11.478 18.7446 11.2557C18.5222 11.0333 18.5222 10.6716 18.7446 10.4492C18.8558 10.338 19.0018 10.2824 19.1478 10.2824C19.2634 10.2824 19.3787 10.3179 19.4771 10.3875C19.3303 10.4673 19.1814 10.5454 19.0313 10.6209C18.9034 10.6852 18.8518 10.841 18.9162 10.9689Z" fill="#575757"/>
<path d="M14.7241 12.2801C14.5809 12.2801 14.4648 12.3961 14.4648 12.5393V18.0137C14.4648 18.1568 14.5809 18.2729 14.7241 18.2729C14.8672 18.2729 14.9833 18.1568 14.9833 18.0137V12.5393C14.9833 12.3961 14.8672 12.2801 14.7241 12.2801Z" fill="#575757"/>
<path d="M13.5387 14.5066C13.1142 14.0821 12.4235 14.0821 11.999 14.5066C11.5745 14.9311 11.5745 15.6218 11.999 16.0463C12.2113 16.2586 12.4901 16.3647 12.7689 16.3646C13.0476 16.3646 13.3265 16.2585 13.5387 16.0463C13.7444 15.8406 13.8576 15.5673 13.8576 15.2765C13.8576 14.9856 13.7443 14.7122 13.5387 14.5066ZM13.1721 15.6797C12.9497 15.9021 12.588 15.902 12.3656 15.6797C12.1433 15.4573 12.1433 15.0956 12.3656 14.8732C12.4768 14.762 12.6229 14.7064 12.7689 14.7064C12.9149 14.7064 13.0609 14.762 13.1721 14.8732C13.2799 14.9809 13.3392 15.1241 13.3392 15.2764C13.3391 15.4288 13.2798 15.572 13.1721 15.6797Z" fill="#575757"/>
<path d="M17.4488 14.5066C17.0243 14.0821 16.3336 14.0821 15.9092 14.5066C15.4847 14.9311 15.4847 15.6218 15.9092 16.0463C16.1214 16.2586 16.4002 16.3647 16.679 16.3647C16.9578 16.3647 17.2366 16.2586 17.4489 16.0463C17.8733 15.6218 17.8733 14.9311 17.4488 14.5066ZM17.0822 15.6797C16.8599 15.9021 16.4981 15.902 16.2758 15.6797C16.0534 15.4573 16.0534 15.0956 16.2758 14.8732C16.3869 14.762 16.533 14.7064 16.679 14.7064C16.825 14.7064 16.9711 14.762 17.0823 14.8732C17.3046 15.0956 17.3046 15.4573 17.0822 15.6797Z" fill="#575757"/>
</g>
<defs>
<clipPath id="clip0_9191_655">
<rect width="16" height="16" fill="white" transform="translate(7 7)"/>
</clipPath>
</defs>
</svg>
