<svg width="30" height="30" viewBox="0 0 30 30" fill="none" xmlns="http://www.w3.org/2000/svg">
<circle cx="15" cy="15" r="15" fill="#EEEEEE"/>
<path d="M18.051 13.5824V9.9303H11.7666V13.5824H18.051V13.5824ZM12.26 10.4237H17.5575V13.089H12.26V10.4237Z" fill="#575757"/>
<path d="M17.0305 10.9448H12.7871V11.4383H17.0305V10.9448Z" fill="#575757"/>
<path d="M17.0305 11.9316H12.7871V12.4251H17.0305V11.9316Z" fill="#575757"/>
<path d="M19.8647 8H10.4283C9.71506 8 9.13477 8.58029 9.13477 9.29358C9.13477 9.29358 9.13486 20.232 9.13486 20.2321C9.13486 20.9453 9.71509 21.5255 10.4283 21.5255H11.182V23H13.0208V21.5255H19.8645L19.8647 8ZM19.3712 18.9382H10.675V8.49344H19.3712V18.9382ZM10.1816 8.53256V18.9617C9.97954 19.0006 9.79069 19.0871 9.62821 19.2155V9.29358C9.62821 8.93847 9.86082 8.63681 10.1816 8.53256ZM10.4283 21.032C9.98718 21.032 9.62831 20.6732 9.62831 20.2321C9.62831 20.0181 9.7115 19.817 9.8626 19.666C10.0137 19.5149 10.2146 19.4317 10.4283 19.4317H11.182V21.032H10.4283ZM11.6755 22.5066V19.4317H12.5274V22.5066H11.6755ZM19.3711 21.032H13.0209V19.4317H19.3711V21.032Z" fill="#575757"/>
</svg>
