<svg width="30" height="30" viewBox="0 0 30 30" fill="none" xmlns="http://www.w3.org/2000/svg">
<circle cx="15" cy="15" r="15" fill="#EEEEEE"/>
<path d="M20.3671 10.8C20.3671 10.7767 20.3671 10.7533 20.3438 10.73V10.7067C20.3205 10.6833 20.3205 10.66 20.2971 10.6367L17.7305 8.07C17.7071 8.04667 17.6838 8.04667 17.6605 8.02333H17.6371C17.6138 8.02333 17.5905 8 17.5671 8H9.86712C9.72712 8 9.63379 8.09333 9.63379 8.23333V21.7667C9.63379 21.9067 9.72712 22 9.86712 22H11.0338H12.4338H13.6005H15.7005H20.1338C20.2738 22 20.3671 21.9067 20.3671 21.7667V10.8ZM19.5738 10.5667H17.8005V8.79333L19.5738 10.5667ZM11.2671 13.3667H12.2005V20.1333H11.2671V13.3667ZM11.3838 12.9L11.7338 12.0833L12.0838 12.9H11.3838ZM11.2671 21.5333V20.6H12.2005V21.5333H11.2671ZM13.8338 21.5333V20.1333H14.7671V19.6667H13.8338V18.2667H14.7671V17.8H13.8338V16.1667H14.7671V15.7H13.8338V14.3H14.7671V13.8333H13.8338V12.6667H15.4671V21.5333H13.8338ZM15.9338 21.5333V12.4333C15.9338 12.2933 15.8405 12.2 15.7005 12.2H13.6005C13.4605 12.2 13.3671 12.2933 13.3671 12.4333V21.5333H12.6671V20.3667V13.1333C12.6671 13.0633 12.6438 12.9933 12.5971 12.97L11.9438 11.43C11.9205 11.3367 11.8271 11.29 11.7338 11.29C11.6405 11.29 11.5705 11.3367 11.5238 11.43L10.8705 12.97C10.8238 13.0167 10.8005 13.0633 10.8005 13.1333V20.3667V21.5333H10.1005V8.46667H17.3338V10.8C17.3338 10.94 17.4271 11.0333 17.5671 11.0333H19.9005V21.5333H15.9338Z" fill="#575757"/>
<path d="M12.6674 9.16669H10.8008V9.63335H12.6674V9.16669Z" fill="#575757"/>
<path d="M18.9672 13.1334H16.8672V13.6H18.9672V13.1334Z" fill="#575757"/>
<path d="M18.9672 14.3H16.8672V14.7667H18.9672V14.3Z" fill="#575757"/>
<path d="M18.9672 15.4667H16.8672V15.9333H18.9672V15.4667Z" fill="#575757"/>
<path d="M18.9672 16.6334H16.8672V17.1H18.9672V16.6334Z" fill="#575757"/>
<path d="M18.9672 17.8H16.8672V18.2667H18.9672V17.8Z" fill="#575757"/>
<path d="M18.9672 18.9667H16.8672V19.4333H18.9672V18.9667Z" fill="#575757"/>
<path d="M18.9672 20.1334H16.8672V20.6H18.9672V20.1334Z" fill="#575757"/>
<path d="M14.5341 10.1H10.8008V10.5666H14.5341V10.1Z" fill="#575757"/>
</svg>
